<svg width="253" height="120" viewBox="0 0 253 120" fill="none" xmlns="http://www.w3.org/2000/svg">
<rect x="4" width="249" height="120" rx="36" fill="white"/>
<path d="M112.15 55.8702C109.334 54.6755 106.667 54.0782 104.15 54.0782C100.608 54.0782 98.8377 55.4649 98.8377 58.2382C98.8377 59.4755 100.182 60.7555 102.87 62.0782C106.752 63.9982 109.248 65.4062 110.358 66.3022C113.003 68.4782 114.326 71.1662 114.326 74.3662C114.326 77.9502 112.896 80.6595 110.038 82.4942C107.776 83.9022 105.067 84.6062 101.91 84.6062C98.0697 84.6062 94.7417 84.0302 91.9257 82.8782L92.5657 76.2862C95.6804 77.8222 98.731 78.5902 101.718 78.5902C103.424 78.5902 104.832 78.1422 105.942 77.2462C106.966 76.4355 107.478 75.3689 107.478 74.0462C107.478 72.3395 106.176 70.7609 103.574 69.3102C101.142 67.9875 99.3284 66.9849 98.1337 66.3022C96.939 65.6195 96.3204 65.2569 96.2777 65.2142C93.675 63.2515 92.3737 60.8409 92.3737 57.9822C92.3737 54.4835 93.675 51.8809 96.2777 50.1742C98.3684 48.8088 100.907 48.1262 103.894 48.1262C107.222 48.1262 110.208 48.7022 112.854 49.8542L112.15 55.8702ZM145.483 83.2622C143.093 84.0302 140.043 84.4142 136.331 84.4142C131.083 84.4142 126.944 82.5795 123.915 78.9102C121.184 75.6249 119.819 71.4222 119.819 66.3022C119.819 61.0542 121.397 56.7235 124.555 53.3102C127.755 49.9395 131.787 48.2542 136.651 48.2542C139.893 48.2542 142.837 48.7022 145.483 49.5982L144.971 55.8062C142.453 54.7822 139.829 54.2702 137.099 54.2702C133.771 54.2702 131.168 55.3795 129.291 57.5982C127.456 59.7742 126.539 62.6755 126.539 66.3022C126.539 69.7155 127.477 72.5955 129.355 74.9422C131.189 77.2462 133.621 78.3982 136.651 78.3982C139.424 78.3982 142.197 77.8862 144.971 76.8622L145.483 83.2622ZM171.299 83.9022V80.5102C169.208 83.2409 166.2 84.6062 162.275 84.6062C158.008 84.6062 154.851 83.4115 152.803 81.0222C151.352 79.2729 150.627 77.1395 150.627 74.6222C150.627 65.9182 157.027 61.5662 169.827 61.5662H170.787V60.4142C170.787 56.2329 168.845 54.1422 164.963 54.1422C161.464 54.1422 158.008 55.0595 154.595 56.8942V50.6222C157.837 48.9582 161.421 48.1262 165.347 48.1262C169.443 48.1262 172.429 49.0862 174.307 51.0062C176.312 53.0969 177.315 56.3395 177.315 60.7342V75.6462C177.315 79.5715 177.443 82.3235 177.699 83.9022H171.299ZM170.787 67.5182H169.443C166.115 67.5182 163.555 67.8169 161.763 68.4142C158.904 69.3529 157.475 71.2089 157.475 73.9822C157.475 77.0542 159.245 78.5902 162.787 78.5902C168.12 78.5902 170.787 75.3475 170.787 68.8622V67.5182ZM194.142 83.5822H187.166V32.6382H194.142V83.5822ZM217.246 53.6302C214.344 53.6302 212.19 54.9315 210.782 57.5342C209.587 59.6675 208.99 62.5689 208.99 66.2382C208.99 74.3875 211.742 78.4622 217.246 78.4622C219.891 78.4622 221.982 77.1395 223.518 74.4942C224.755 72.2329 225.374 69.4169 225.374 66.0462C225.374 62.6755 224.755 59.8595 223.518 57.5982C222.024 54.9529 219.934 53.6302 217.246 53.6302ZM231.838 83.9022H225.374V80.7022C223.24 83.3475 220.318 84.6702 216.606 84.6702C211.955 84.6702 208.35 82.9422 205.79 79.4862C203.4 76.1155 202.206 71.6995 202.206 66.2382C202.206 60.6062 203.315 56.1689 205.534 52.9262C207.966 49.2995 211.656 47.4862 216.606 47.4862C220.019 47.4862 222.942 48.8942 225.374 51.7102V32.5102H231.838V83.9022Z" fill="#1E1E1E"/>
<path d="M70.4748 36.9935L70.5098 37.001C70.6027 37.1021 70.5975 37.137 70.5952 37.3129C70.5692 39.317 70.5771 41.3294 70.5782 43.333L70.5867 57.1313C71.368 57.5629 72.9464 59.0908 73.5668 59.7762C76.7003 63.2372 78.3157 67.9506 77.993 72.6167C77.666 77.3438 75.3711 81.5048 71.8712 84.6103C69.5882 86.632 66.8043 88.004 63.8102 88.5828C63.465 88.6479 61.6552 88.9309 61.4638 88.7104L61.4786 88.5252C61.5347 85.8799 61.5138 83.04 61.4858 80.3882C65.8695 79.2202 69.134 75.9575 70.2485 71.5473C70.6898 69.8009 70.6374 68.1254 70.6249 66.3453L70.6121 62.8068L70.602 59.3378C70.6023 58.649 70.6274 57.8939 70.5917 57.2149C69.4442 56.4962 68.0631 55.6892 66.9936 54.9036C64.6283 53.1664 63.2216 50.753 62.8225 47.8432C62.4701 45.158 63.1936 42.4425 64.8349 40.2885C66.2398 38.4547 68.1794 37.2902 70.4748 36.9935Z" fill="#63A0EF"/>
<path d="M35.0766 57.1841C35.1839 57.295 35.1311 59.4242 35.1313 59.7424L35.1318 65.6749C35.1327 67.0366 35.1103 68.8991 35.31 70.2283C35.5252 71.7427 36.027 73.2022 36.7884 74.5288C38.4701 77.4549 40.9085 79.4851 44.176 80.3729C44.2633 82.6943 44.1699 85.0575 44.1845 87.3828C44.1874 87.8441 44.1461 88.3891 44.2024 88.8417C42.0764 88.6634 40.5854 88.2852 38.6201 87.5071C35.7411 86.2827 33.247 84.3024 31.4018 81.7761C28.5224 77.8641 27.4622 73.2232 28.2102 68.4326C28.9209 63.9225 31.3899 59.8777 35.0766 57.1841Z" fill="#63A0EF"/>
<path d="M35.174 37.0092C40.6449 37.6593 44.0064 43.4221 42.9494 48.587C42.5093 50.7377 41.5362 52.4453 40.0085 53.9956C38.929 55.0549 36.564 56.3464 35.1746 57.0356C35.2318 52.3706 35.098 47.6663 35.1357 42.9979C35.1513 41.0771 35.0664 38.9099 35.174 37.0092Z" fill="#63A0EF"/>
<path d="M56.8427 37.1261L58.9523 37.118C58.9274 37.4729 58.9513 38.0198 58.949 38.3904L58.9497 41.5156L58.9537 49.2397L58.9163 71.5769C58.9236 72.6805 59.0534 80.7378 58.9073 81.0849C58.8463 81.2301 58.7129 81.2686 58.578 81.3229C57.9433 81.4965 57.4748 81.6189 56.8218 81.6741C56.8971 80.3954 56.8513 78.6132 56.8505 77.3138L56.8308 68.8709L56.8467 48.6366C56.8102 44.7998 56.8088 40.9628 56.8427 37.1261Z" fill="#63A0EF"/>
<path d="M46.7939 37.1242C47.5016 37.1096 48.2093 37.1033 48.9171 37.1056C48.8809 38.7816 48.9089 40.5534 48.9101 42.2373L48.9116 51.3245L48.9013 81.6717C48.0947 81.5657 47.5983 81.4481 46.8298 81.1852C46.8901 79.7339 46.8372 77.8679 46.8361 76.3889L46.8302 67.1411L46.7939 37.1242Z" fill="#63A0EF"/>
<path d="M48.9942 81.7391C51.5266 81.6994 54.2091 81.7416 56.7607 81.7299C56.7617 82.452 56.8046 88.6532 56.7145 88.7795L56.5278 88.7898C54.8896 88.7852 53.2515 88.7899 51.6133 88.8041C50.8933 88.8068 49.6521 88.7596 48.9786 88.827C49.0269 86.5354 49.0059 84.044 48.9942 81.7391Z" fill="#63A0EF"/>
<path d="M67.4748 36.9935L67.5098 37.001C67.6027 37.1021 67.5975 37.137 67.5952 37.3129C67.5692 39.317 67.5771 41.3294 67.5782 43.333L67.5867 57.1313C68.368 57.5629 69.9464 59.0908 70.5668 59.7762C73.7003 63.2372 75.3157 67.9506 74.993 72.6167C74.666 77.3438 72.3711 81.5048 68.8712 84.6103C66.5882 86.632 63.8043 88.004 60.8102 88.5828C60.465 88.6479 58.6552 88.9309 58.4638 88.7104L58.4786 88.5252C58.5347 85.8799 58.5138 83.04 58.4858 80.3882C62.8695 79.2202 66.134 75.9575 67.2485 71.5473C67.6898 69.8009 67.6374 68.1254 67.6249 66.3453L67.6121 62.8068L67.602 59.3378C67.6023 58.649 67.6274 57.8939 67.5917 57.2149C66.4442 56.4962 65.0631 55.6892 63.9936 54.9036C61.6283 53.1664 60.2216 50.753 59.8225 47.8432C59.4701 45.158 60.1936 42.4425 61.8349 40.2885C63.2398 38.4547 65.1794 37.2902 67.4748 36.9935Z" fill="#1E1E1E"/>
<path d="M32.0766 57.1841C32.1839 57.295 32.1311 59.4242 32.1313 59.7424L32.1318 65.6749C32.1327 67.0366 32.1103 68.8991 32.31 70.2283C32.5252 71.7427 33.027 73.2022 33.7884 74.5288C35.4701 77.4549 37.9085 79.4851 41.176 80.3729C41.2633 82.6943 41.1699 85.0575 41.1845 87.3828C41.1874 87.8441 41.1461 88.3891 41.2024 88.8417C39.0764 88.6634 37.5854 88.2852 35.6201 87.5071C32.7411 86.2827 30.247 84.3024 28.4018 81.7761C25.5224 77.8641 24.4622 73.2232 25.2102 68.4326C25.9209 63.9225 28.3899 59.8777 32.0766 57.1841Z" fill="#1E1E1E"/>
<path d="M32.174 37.0092C37.6449 37.6593 41.0064 43.4221 39.9494 48.587C39.5093 50.7377 38.5362 52.4453 37.0085 53.9956C35.929 55.0549 33.564 56.3464 32.1746 57.0356C32.2318 52.3706 32.098 47.6663 32.1357 42.9979C32.1513 41.0771 32.0664 38.9099 32.174 37.0092Z" fill="#1E1E1E"/>
<path d="M53.8427 37.1261L55.9523 37.118C55.9274 37.4729 55.9513 38.0198 55.949 38.3904L55.9497 41.5156L55.9537 49.2397L55.9163 71.5769C55.9236 72.6805 56.0534 80.7378 55.9073 81.0849C55.8463 81.2301 55.7129 81.2686 55.578 81.3229C54.9433 81.4965 54.4748 81.6189 53.8218 81.6741C53.8971 80.3954 53.8513 78.6132 53.8505 77.3138L53.8308 68.8709L53.8467 48.6366C53.8102 44.7998 53.8088 40.9628 53.8427 37.1261Z" fill="#1E1E1E"/>
<path d="M43.7939 37.1242C44.5016 37.1096 45.2093 37.1033 45.9171 37.1056C45.8809 38.7816 45.9089 40.5534 45.9101 42.2373L45.9116 51.3245L45.9013 81.6717C45.0947 81.5657 44.5983 81.4481 43.8298 81.1852C43.8901 79.7339 43.8372 77.8679 43.8361 76.3889L43.8302 67.1411L43.7939 37.1242Z" fill="#1E1E1E"/>
<path d="M45.9942 81.7391C48.5266 81.6994 51.2091 81.7416 53.7607 81.7299C53.7617 82.452 53.8046 88.6532 53.7145 88.7795L53.5278 88.7898C51.8896 88.7852 50.2515 88.7899 48.6133 88.8041C47.8933 88.8068 46.6521 88.7596 45.9786 88.827C46.0269 86.5354 46.0059 84.044 45.9942 81.7391Z" fill="#1E1E1E"/>
</svg>
